<?xml version="1.0" encoding="utf-8" standalone="no"?>
<!DOCTYPE svg PUBLIC "-//W3C//DTD SVG 1.1//EN"
  "http://www.w3.org/Graphics/SVG/1.1/DTD/svg11.dtd">
<svg xmlns:xlink="http://www.w3.org/1999/xlink" width="706.45125pt" height="423.034375pt" viewBox="0 0 706.45125 423.034375" xmlns="http://www.w3.org/2000/svg" version="1.1">
 <metadata>
  <rdf:RDF xmlns:dc="http://purl.org/dc/elements/1.1/" xmlns:cc="http://creativecommons.org/ns#" xmlns:rdf="http://www.w3.org/1999/02/22-rdf-syntax-ns#">
   <cc:Work>
    <dc:type rdf:resource="http://purl.org/dc/dcmitype/StillImage"/>
    <dc:date>2025-03-21T16:12:12.667579</dc:date>
    <dc:format>image/svg+xml</dc:format>
    <dc:creator>
     <cc:Agent>
      <dc:title>Matplotlib v3.10.0, https://matplotlib.org/</dc:title>
     </cc:Agent>
    </dc:creator>
   </cc:Work>
  </rdf:RDF>
 </metadata>
 <defs>
  <style type="text/css">*{stroke-linejoin: round; stroke-linecap: butt}</style>
 </defs>
 <g id="figure_1">
  <g id="patch_1">
   <path d="M 0 423.034375 
L 706.45125 423.034375 
L 706.45125 0 
L 0 0 
z
" style="fill: #ffffff"/>
  </g>
  <g id="axes_1">
   <g id="patch_2">
    <path d="M 48.982813 385.478125 
L 486.132813 385.478125 
L 486.132813 22.318125 
L 48.982813 22.318125 
z
" style="fill: #ffffff"/>
   </g>
   <g id="matplotlib.axis_1">
    <g id="xtick_1">
     <g id="line2d_1">
      <path d="M 68.853267 385.478125 
L 68.853267 22.318125 
" clip-path="url(#p594856efeb)" style="fill: none; stroke-dasharray: 2.96,1.28; stroke-dashoffset: 0; stroke: #b0b0b0; stroke-opacity: 0.7; stroke-width: 0.8"/>
     </g>
     <g id="line2d_2">
      <defs>
       <path id="m41b50cc4d1" d="M 0 0 
L 0 3.5 
" style="stroke: #000000; stroke-width: 0.8"/>
      </defs>
      <g>
       <use xlink:href="#m41b50cc4d1" x="68.853267" y="385.478125" style="stroke: #000000; stroke-width: 0.8"/>
      </g>
     </g>
     <g id="text_1">
      <!-- 0 -->
      <g transform="translate(65.672017 400.076562) scale(0.1 -0.1)">
       <defs>
        <path id="DejaVuSans-30" d="M 2034 4250 
Q 1547 4250 1301 3770 
Q 1056 3291 1056 2328 
Q 1056 1369 1301 889 
Q 1547 409 2034 409 
Q 2525 409 2770 889 
Q 3016 1369 3016 2328 
Q 3016 3291 2770 3770 
Q 2525 4250 2034 4250 
z
M 2034 4750 
Q 2819 4750 3233 4129 
Q 3647 3509 3647 2328 
Q 3647 1150 3233 529 
Q 2819 -91 2034 -91 
Q 1250 -91 836 529 
Q 422 1150 422 2328 
Q 422 3509 836 4129 
Q 1250 4750 2034 4750 
z
" transform="scale(0.015625)"/>
       </defs>
       <use xlink:href="#DejaVuSans-30"/>
      </g>
     </g>
    </g>
    <g id="xtick_2">
     <g id="line2d_3">
      <path d="M 149.137932 385.478125 
L 149.137932 22.318125 
" clip-path="url(#p594856efeb)" style="fill: none; stroke-dasharray: 2.96,1.28; stroke-dashoffset: 0; stroke: #b0b0b0; stroke-opacity: 0.7; stroke-width: 0.8"/>
     </g>
     <g id="line2d_4">
      <g>
       <use xlink:href="#m41b50cc4d1" x="149.137932" y="385.478125" style="stroke: #000000; stroke-width: 0.8"/>
      </g>
     </g>
     <g id="text_2">
      <!-- 20 -->
      <g transform="translate(142.775432 400.076562) scale(0.1 -0.1)">
       <defs>
        <path id="DejaVuSans-32" d="M 1228 531 
L 3431 531 
L 3431 0 
L 469 0 
L 469 531 
Q 828 903 1448 1529 
Q 2069 2156 2228 2338 
Q 2531 2678 2651 2914 
Q 2772 3150 2772 3378 
Q 2772 3750 2511 3984 
Q 2250 4219 1831 4219 
Q 1534 4219 1204 4116 
Q 875 4013 500 3803 
L 500 4441 
Q 881 4594 1212 4672 
Q 1544 4750 1819 4750 
Q 2544 4750 2975 4387 
Q 3406 4025 3406 3419 
Q 3406 3131 3298 2873 
Q 3191 2616 2906 2266 
Q 2828 2175 2409 1742 
Q 1991 1309 1228 531 
z
" transform="scale(0.015625)"/>
       </defs>
       <use xlink:href="#DejaVuSans-32"/>
       <use xlink:href="#DejaVuSans-30" transform="translate(63.623047 0)"/>
      </g>
     </g>
    </g>
    <g id="xtick_3">
     <g id="line2d_5">
      <path d="M 229.422597 385.478125 
L 229.422597 22.318125 
" clip-path="url(#p594856efeb)" style="fill: none; stroke-dasharray: 2.96,1.28; stroke-dashoffset: 0; stroke: #b0b0b0; stroke-opacity: 0.7; stroke-width: 0.8"/>
     </g>
     <g id="line2d_6">
      <g>
       <use xlink:href="#m41b50cc4d1" x="229.422597" y="385.478125" style="stroke: #000000; stroke-width: 0.8"/>
      </g>
     </g>
     <g id="text_3">
      <!-- 40 -->
      <g transform="translate(223.060097 400.076562) scale(0.1 -0.1)">
       <defs>
        <path id="DejaVuSans-34" d="M 2419 4116 
L 825 1625 
L 2419 1625 
L 2419 4116 
z
M 2253 4666 
L 3047 4666 
L 3047 1625 
L 3713 1625 
L 3713 1100 
L 3047 1100 
L 3047 0 
L 2419 0 
L 2419 1100 
L 313 1100 
L 313 1709 
L 2253 4666 
z
" transform="scale(0.015625)"/>
       </defs>
       <use xlink:href="#DejaVuSans-34"/>
       <use xlink:href="#DejaVuSans-30" transform="translate(63.623047 0)"/>
      </g>
     </g>
    </g>
    <g id="xtick_4">
     <g id="line2d_7">
      <path d="M 309.707262 385.478125 
L 309.707262 22.318125 
" clip-path="url(#p594856efeb)" style="fill: none; stroke-dasharray: 2.96,1.28; stroke-dashoffset: 0; stroke: #b0b0b0; stroke-opacity: 0.7; stroke-width: 0.8"/>
     </g>
     <g id="line2d_8">
      <g>
       <use xlink:href="#m41b50cc4d1" x="309.707262" y="385.478125" style="stroke: #000000; stroke-width: 0.8"/>
      </g>
     </g>
     <g id="text_4">
      <!-- 60 -->
      <g transform="translate(303.344762 400.076562) scale(0.1 -0.1)">
       <defs>
        <path id="DejaVuSans-36" d="M 2113 2584 
Q 1688 2584 1439 2293 
Q 1191 2003 1191 1497 
Q 1191 994 1439 701 
Q 1688 409 2113 409 
Q 2538 409 2786 701 
Q 3034 994 3034 1497 
Q 3034 2003 2786 2293 
Q 2538 2584 2113 2584 
z
M 3366 4563 
L 3366 3988 
Q 3128 4100 2886 4159 
Q 2644 4219 2406 4219 
Q 1781 4219 1451 3797 
Q 1122 3375 1075 2522 
Q 1259 2794 1537 2939 
Q 1816 3084 2150 3084 
Q 2853 3084 3261 2657 
Q 3669 2231 3669 1497 
Q 3669 778 3244 343 
Q 2819 -91 2113 -91 
Q 1303 -91 875 529 
Q 447 1150 447 2328 
Q 447 3434 972 4092 
Q 1497 4750 2381 4750 
Q 2619 4750 2861 4703 
Q 3103 4656 3366 4563 
z
" transform="scale(0.015625)"/>
       </defs>
       <use xlink:href="#DejaVuSans-36"/>
       <use xlink:href="#DejaVuSans-30" transform="translate(63.623047 0)"/>
      </g>
     </g>
    </g>
    <g id="xtick_5">
     <g id="line2d_9">
      <path d="M 389.991926 385.478125 
L 389.991926 22.318125 
" clip-path="url(#p594856efeb)" style="fill: none; stroke-dasharray: 2.96,1.28; stroke-dashoffset: 0; stroke: #b0b0b0; stroke-opacity: 0.7; stroke-width: 0.8"/>
     </g>
     <g id="line2d_10">
      <g>
       <use xlink:href="#m41b50cc4d1" x="389.991926" y="385.478125" style="stroke: #000000; stroke-width: 0.8"/>
      </g>
     </g>
     <g id="text_5">
      <!-- 80 -->
      <g transform="translate(383.629426 400.076562) scale(0.1 -0.1)">
       <defs>
        <path id="DejaVuSans-38" d="M 2034 2216 
Q 1584 2216 1326 1975 
Q 1069 1734 1069 1313 
Q 1069 891 1326 650 
Q 1584 409 2034 409 
Q 2484 409 2743 651 
Q 3003 894 3003 1313 
Q 3003 1734 2745 1975 
Q 2488 2216 2034 2216 
z
M 1403 2484 
Q 997 2584 770 2862 
Q 544 3141 544 3541 
Q 544 4100 942 4425 
Q 1341 4750 2034 4750 
Q 2731 4750 3128 4425 
Q 3525 4100 3525 3541 
Q 3525 3141 3298 2862 
Q 3072 2584 2669 2484 
Q 3125 2378 3379 2068 
Q 3634 1759 3634 1313 
Q 3634 634 3220 271 
Q 2806 -91 2034 -91 
Q 1263 -91 848 271 
Q 434 634 434 1313 
Q 434 1759 690 2068 
Q 947 2378 1403 2484 
z
M 1172 3481 
Q 1172 3119 1398 2916 
Q 1625 2713 2034 2713 
Q 2441 2713 2670 2916 
Q 2900 3119 2900 3481 
Q 2900 3844 2670 4047 
Q 2441 4250 2034 4250 
Q 1625 4250 1398 4047 
Q 1172 3844 1172 3481 
z
" transform="scale(0.015625)"/>
       </defs>
       <use xlink:href="#DejaVuSans-38"/>
       <use xlink:href="#DejaVuSans-30" transform="translate(63.623047 0)"/>
      </g>
     </g>
    </g>
    <g id="xtick_6">
     <g id="line2d_11">
      <path d="M 470.276591 385.478125 
L 470.276591 22.318125 
" clip-path="url(#p594856efeb)" style="fill: none; stroke-dasharray: 2.96,1.28; stroke-dashoffset: 0; stroke: #b0b0b0; stroke-opacity: 0.7; stroke-width: 0.8"/>
     </g>
     <g id="line2d_12">
      <g>
       <use xlink:href="#m41b50cc4d1" x="470.276591" y="385.478125" style="stroke: #000000; stroke-width: 0.8"/>
      </g>
     </g>
     <g id="text_6">
      <!-- 100 -->
      <g transform="translate(460.732841 400.076562) scale(0.1 -0.1)">
       <defs>
        <path id="DejaVuSans-31" d="M 794 531 
L 1825 531 
L 1825 4091 
L 703 3866 
L 703 4441 
L 1819 4666 
L 2450 4666 
L 2450 531 
L 3481 531 
L 3481 0 
L 794 0 
L 794 531 
z
" transform="scale(0.015625)"/>
       </defs>
       <use xlink:href="#DejaVuSans-31"/>
       <use xlink:href="#DejaVuSans-30" transform="translate(63.623047 0)"/>
       <use xlink:href="#DejaVuSans-30" transform="translate(127.246094 0)"/>
      </g>
     </g>
    </g>
    <g id="text_7">
     <!-- Number of Samples -->
     <g transform="translate(218.121094 413.754687) scale(0.1 -0.1)">
      <defs>
       <path id="DejaVuSans-4e" d="M 628 4666 
L 1478 4666 
L 3547 763 
L 3547 4666 
L 4159 4666 
L 4159 0 
L 3309 0 
L 1241 3903 
L 1241 0 
L 628 0 
L 628 4666 
z
" transform="scale(0.015625)"/>
       <path id="DejaVuSans-75" d="M 544 1381 
L 544 3500 
L 1119 3500 
L 1119 1403 
Q 1119 906 1312 657 
Q 1506 409 1894 409 
Q 2359 409 2629 706 
Q 2900 1003 2900 1516 
L 2900 3500 
L 3475 3500 
L 3475 0 
L 2900 0 
L 2900 538 
Q 2691 219 2414 64 
Q 2138 -91 1772 -91 
Q 1169 -91 856 284 
Q 544 659 544 1381 
z
M 1991 3584 
L 1991 3584 
z
" transform="scale(0.015625)"/>
       <path id="DejaVuSans-6d" d="M 3328 2828 
Q 3544 3216 3844 3400 
Q 4144 3584 4550 3584 
Q 5097 3584 5394 3201 
Q 5691 2819 5691 2113 
L 5691 0 
L 5113 0 
L 5113 2094 
Q 5113 2597 4934 2840 
Q 4756 3084 4391 3084 
Q 3944 3084 3684 2787 
Q 3425 2491 3425 1978 
L 3425 0 
L 2847 0 
L 2847 2094 
Q 2847 2600 2669 2842 
Q 2491 3084 2119 3084 
Q 1678 3084 1418 2786 
Q 1159 2488 1159 1978 
L 1159 0 
L 581 0 
L 581 3500 
L 1159 3500 
L 1159 2956 
Q 1356 3278 1631 3431 
Q 1906 3584 2284 3584 
Q 2666 3584 2933 3390 
Q 3200 3197 3328 2828 
z
" transform="scale(0.015625)"/>
       <path id="DejaVuSans-62" d="M 3116 1747 
Q 3116 2381 2855 2742 
Q 2594 3103 2138 3103 
Q 1681 3103 1420 2742 
Q 1159 2381 1159 1747 
Q 1159 1113 1420 752 
Q 1681 391 2138 391 
Q 2594 391 2855 752 
Q 3116 1113 3116 1747 
z
M 1159 2969 
Q 1341 3281 1617 3432 
Q 1894 3584 2278 3584 
Q 2916 3584 3314 3078 
Q 3713 2572 3713 1747 
Q 3713 922 3314 415 
Q 2916 -91 2278 -91 
Q 1894 -91 1617 61 
Q 1341 213 1159 525 
L 1159 0 
L 581 0 
L 581 4863 
L 1159 4863 
L 1159 2969 
z
" transform="scale(0.015625)"/>
       <path id="DejaVuSans-65" d="M 3597 1894 
L 3597 1613 
L 953 1613 
Q 991 1019 1311 708 
Q 1631 397 2203 397 
Q 2534 397 2845 478 
Q 3156 559 3463 722 
L 3463 178 
Q 3153 47 2828 -22 
Q 2503 -91 2169 -91 
Q 1331 -91 842 396 
Q 353 884 353 1716 
Q 353 2575 817 3079 
Q 1281 3584 2069 3584 
Q 2775 3584 3186 3129 
Q 3597 2675 3597 1894 
z
M 3022 2063 
Q 3016 2534 2758 2815 
Q 2500 3097 2075 3097 
Q 1594 3097 1305 2825 
Q 1016 2553 972 2059 
L 3022 2063 
z
" transform="scale(0.015625)"/>
       <path id="DejaVuSans-72" d="M 2631 2963 
Q 2534 3019 2420 3045 
Q 2306 3072 2169 3072 
Q 1681 3072 1420 2755 
Q 1159 2438 1159 1844 
L 1159 0 
L 581 0 
L 581 3500 
L 1159 3500 
L 1159 2956 
Q 1341 3275 1631 3429 
Q 1922 3584 2338 3584 
Q 2397 3584 2469 3576 
Q 2541 3569 2628 3553 
L 2631 2963 
z
" transform="scale(0.015625)"/>
       <path id="DejaVuSans-20" transform="scale(0.015625)"/>
       <path id="DejaVuSans-6f" d="M 1959 3097 
Q 1497 3097 1228 2736 
Q 959 2375 959 1747 
Q 959 1119 1226 758 
Q 1494 397 1959 397 
Q 2419 397 2687 759 
Q 2956 1122 2956 1747 
Q 2956 2369 2687 2733 
Q 2419 3097 1959 3097 
z
M 1959 3584 
Q 2709 3584 3137 3096 
Q 3566 2609 3566 1747 
Q 3566 888 3137 398 
Q 2709 -91 1959 -91 
Q 1206 -91 779 398 
Q 353 888 353 1747 
Q 353 2609 779 3096 
Q 1206 3584 1959 3584 
z
" transform="scale(0.015625)"/>
       <path id="DejaVuSans-66" d="M 2375 4863 
L 2375 4384 
L 1825 4384 
Q 1516 4384 1395 4259 
Q 1275 4134 1275 3809 
L 1275 3500 
L 2222 3500 
L 2222 3053 
L 1275 3053 
L 1275 0 
L 697 0 
L 697 3053 
L 147 3053 
L 147 3500 
L 697 3500 
L 697 3744 
Q 697 4328 969 4595 
Q 1241 4863 1831 4863 
L 2375 4863 
z
" transform="scale(0.015625)"/>
       <path id="DejaVuSans-53" d="M 3425 4513 
L 3425 3897 
Q 3066 4069 2747 4153 
Q 2428 4238 2131 4238 
Q 1616 4238 1336 4038 
Q 1056 3838 1056 3469 
Q 1056 3159 1242 3001 
Q 1428 2844 1947 2747 
L 2328 2669 
Q 3034 2534 3370 2195 
Q 3706 1856 3706 1288 
Q 3706 609 3251 259 
Q 2797 -91 1919 -91 
Q 1588 -91 1214 -16 
Q 841 59 441 206 
L 441 856 
Q 825 641 1194 531 
Q 1563 422 1919 422 
Q 2459 422 2753 634 
Q 3047 847 3047 1241 
Q 3047 1584 2836 1778 
Q 2625 1972 2144 2069 
L 1759 2144 
Q 1053 2284 737 2584 
Q 422 2884 422 3419 
Q 422 4038 858 4394 
Q 1294 4750 2059 4750 
Q 2388 4750 2728 4690 
Q 3069 4631 3425 4513 
z
" transform="scale(0.015625)"/>
       <path id="DejaVuSans-61" d="M 2194 1759 
Q 1497 1759 1228 1600 
Q 959 1441 959 1056 
Q 959 750 1161 570 
Q 1363 391 1709 391 
Q 2188 391 2477 730 
Q 2766 1069 2766 1631 
L 2766 1759 
L 2194 1759 
z
M 3341 1997 
L 3341 0 
L 2766 0 
L 2766 531 
Q 2569 213 2275 61 
Q 1981 -91 1556 -91 
Q 1019 -91 701 211 
Q 384 513 384 1019 
Q 384 1609 779 1909 
Q 1175 2209 1959 2209 
L 2766 2209 
L 2766 2266 
Q 2766 2663 2505 2880 
Q 2244 3097 1772 3097 
Q 1472 3097 1187 3025 
Q 903 2953 641 2809 
L 641 3341 
Q 956 3463 1253 3523 
Q 1550 3584 1831 3584 
Q 2591 3584 2966 3190 
Q 3341 2797 3341 1997 
z
" transform="scale(0.015625)"/>
       <path id="DejaVuSans-70" d="M 1159 525 
L 1159 -1331 
L 581 -1331 
L 581 3500 
L 1159 3500 
L 1159 2969 
Q 1341 3281 1617 3432 
Q 1894 3584 2278 3584 
Q 2916 3584 3314 3078 
Q 3713 2572 3713 1747 
Q 3713 922 3314 415 
Q 2916 -91 2278 -91 
Q 1894 -91 1617 61 
Q 1341 213 1159 525 
z
M 3116 1747 
Q 3116 2381 2855 2742 
Q 2594 3103 2138 3103 
Q 1681 3103 1420 2742 
Q 1159 2381 1159 1747 
Q 1159 1113 1420 752 
Q 1681 391 2138 391 
Q 2594 391 2855 752 
Q 3116 1113 3116 1747 
z
" transform="scale(0.015625)"/>
       <path id="DejaVuSans-6c" d="M 603 4863 
L 1178 4863 
L 1178 0 
L 603 0 
L 603 4863 
z
" transform="scale(0.015625)"/>
       <path id="DejaVuSans-73" d="M 2834 3397 
L 2834 2853 
Q 2591 2978 2328 3040 
Q 2066 3103 1784 3103 
Q 1356 3103 1142 2972 
Q 928 2841 928 2578 
Q 928 2378 1081 2264 
Q 1234 2150 1697 2047 
L 1894 2003 
Q 2506 1872 2764 1633 
Q 3022 1394 3022 966 
Q 3022 478 2636 193 
Q 2250 -91 1575 -91 
Q 1294 -91 989 -36 
Q 684 19 347 128 
L 347 722 
Q 666 556 975 473 
Q 1284 391 1588 391 
Q 1994 391 2212 530 
Q 2431 669 2431 922 
Q 2431 1156 2273 1281 
Q 2116 1406 1581 1522 
L 1381 1569 
Q 847 1681 609 1914 
Q 372 2147 372 2553 
Q 372 3047 722 3315 
Q 1072 3584 1716 3584 
Q 2034 3584 2315 3537 
Q 2597 3491 2834 3397 
z
" transform="scale(0.015625)"/>
      </defs>
      <use xlink:href="#DejaVuSans-4e"/>
      <use xlink:href="#DejaVuSans-75" transform="translate(74.804688 0)"/>
      <use xlink:href="#DejaVuSans-6d" transform="translate(138.183594 0)"/>
      <use xlink:href="#DejaVuSans-62" transform="translate(235.595703 0)"/>
      <use xlink:href="#DejaVuSans-65" transform="translate(299.072266 0)"/>
      <use xlink:href="#DejaVuSans-72" transform="translate(360.595703 0)"/>
      <use xlink:href="#DejaVuSans-20" transform="translate(401.708984 0)"/>
      <use xlink:href="#DejaVuSans-6f" transform="translate(433.496094 0)"/>
      <use xlink:href="#DejaVuSans-66" transform="translate(494.677734 0)"/>
      <use xlink:href="#DejaVuSans-20" transform="translate(529.882812 0)"/>
      <use xlink:href="#DejaVuSans-53" transform="translate(561.669922 0)"/>
      <use xlink:href="#DejaVuSans-61" transform="translate(625.146484 0)"/>
      <use xlink:href="#DejaVuSans-6d" transform="translate(686.425781 0)"/>
      <use xlink:href="#DejaVuSans-70" transform="translate(783.837891 0)"/>
      <use xlink:href="#DejaVuSans-6c" transform="translate(847.314453 0)"/>
      <use xlink:href="#DejaVuSans-65" transform="translate(875.097656 0)"/>
      <use xlink:href="#DejaVuSans-73" transform="translate(936.621094 0)"/>
     </g>
    </g>
   </g>
   <g id="matplotlib.axis_2">
    <g id="ytick_1">
     <g id="line2d_13">
      <path d="M 48.982813 353.903215 
L 486.132813 353.903215 
" clip-path="url(#p594856efeb)" style="fill: none; stroke-dasharray: 2.96,1.28; stroke-dashoffset: 0; stroke: #b0b0b0; stroke-opacity: 0.7; stroke-width: 0.8"/>
     </g>
     <g id="line2d_14">
      <defs>
       <path id="md1083b1bac" d="M 0 0 
L -3.5 0 
" style="stroke: #000000; stroke-width: 0.8"/>
      </defs>
      <g>
       <use xlink:href="#md1083b1bac" x="48.982813" y="353.903215" style="stroke: #000000; stroke-width: 0.8"/>
      </g>
     </g>
     <g id="text_8">
      <!-- −10 -->
      <g transform="translate(20.878125 357.702434) scale(0.1 -0.1)">
       <defs>
        <path id="DejaVuSans-2212" d="M 678 2272 
L 4684 2272 
L 4684 1741 
L 678 1741 
L 678 2272 
z
" transform="scale(0.015625)"/>
       </defs>
       <use xlink:href="#DejaVuSans-2212"/>
       <use xlink:href="#DejaVuSans-31" transform="translate(83.789062 0)"/>
       <use xlink:href="#DejaVuSans-30" transform="translate(147.412109 0)"/>
      </g>
     </g>
    </g>
    <g id="ytick_2">
     <g id="line2d_15">
      <path d="M 48.982813 287.762651 
L 486.132813 287.762651 
" clip-path="url(#p594856efeb)" style="fill: none; stroke-dasharray: 2.96,1.28; stroke-dashoffset: 0; stroke: #b0b0b0; stroke-opacity: 0.7; stroke-width: 0.8"/>
     </g>
     <g id="line2d_16">
      <g>
       <use xlink:href="#md1083b1bac" x="48.982813" y="287.762651" style="stroke: #000000; stroke-width: 0.8"/>
      </g>
     </g>
     <g id="text_9">
      <!-- −5 -->
      <g transform="translate(27.240625 291.56187) scale(0.1 -0.1)">
       <defs>
        <path id="DejaVuSans-35" d="M 691 4666 
L 3169 4666 
L 3169 4134 
L 1269 4134 
L 1269 2991 
Q 1406 3038 1543 3061 
Q 1681 3084 1819 3084 
Q 2600 3084 3056 2656 
Q 3513 2228 3513 1497 
Q 3513 744 3044 326 
Q 2575 -91 1722 -91 
Q 1428 -91 1123 -41 
Q 819 9 494 109 
L 494 744 
Q 775 591 1075 516 
Q 1375 441 1709 441 
Q 2250 441 2565 725 
Q 2881 1009 2881 1497 
Q 2881 1984 2565 2268 
Q 2250 2553 1709 2553 
Q 1456 2553 1204 2497 
Q 953 2441 691 2322 
L 691 4666 
z
" transform="scale(0.015625)"/>
       </defs>
       <use xlink:href="#DejaVuSans-2212"/>
       <use xlink:href="#DejaVuSans-35" transform="translate(83.789062 0)"/>
      </g>
     </g>
    </g>
    <g id="ytick_3">
     <g id="line2d_17">
      <path d="M 48.982813 221.622087 
L 486.132813 221.622087 
" clip-path="url(#p594856efeb)" style="fill: none; stroke-dasharray: 2.96,1.28; stroke-dashoffset: 0; stroke: #b0b0b0; stroke-opacity: 0.7; stroke-width: 0.8"/>
     </g>
     <g id="line2d_18">
      <g>
       <use xlink:href="#md1083b1bac" x="48.982813" y="221.622087" style="stroke: #000000; stroke-width: 0.8"/>
      </g>
     </g>
     <g id="text_10">
      <!-- 0 -->
      <g transform="translate(35.620313 225.421306) scale(0.1 -0.1)">
       <use xlink:href="#DejaVuSans-30"/>
      </g>
     </g>
    </g>
    <g id="ytick_4">
     <g id="line2d_19">
      <path d="M 48.982813 155.481523 
L 486.132813 155.481523 
" clip-path="url(#p594856efeb)" style="fill: none; stroke-dasharray: 2.96,1.28; stroke-dashoffset: 0; stroke: #b0b0b0; stroke-opacity: 0.7; stroke-width: 0.8"/>
     </g>
     <g id="line2d_20">
      <g>
       <use xlink:href="#md1083b1bac" x="48.982813" y="155.481523" style="stroke: #000000; stroke-width: 0.8"/>
      </g>
     </g>
     <g id="text_11">
      <!-- 5 -->
      <g transform="translate(35.620313 159.280742) scale(0.1 -0.1)">
       <use xlink:href="#DejaVuSans-35"/>
      </g>
     </g>
    </g>
    <g id="ytick_5">
     <g id="line2d_21">
      <path d="M 48.982813 89.340959 
L 486.132813 89.340959 
" clip-path="url(#p594856efeb)" style="fill: none; stroke-dasharray: 2.96,1.28; stroke-dashoffset: 0; stroke: #b0b0b0; stroke-opacity: 0.7; stroke-width: 0.8"/>
     </g>
     <g id="line2d_22">
      <g>
       <use xlink:href="#md1083b1bac" x="48.982813" y="89.340959" style="stroke: #000000; stroke-width: 0.8"/>
      </g>
     </g>
     <g id="text_12">
      <!-- 10 -->
      <g transform="translate(29.257813 93.140178) scale(0.1 -0.1)">
       <use xlink:href="#DejaVuSans-31"/>
       <use xlink:href="#DejaVuSans-30" transform="translate(63.623047 0)"/>
      </g>
     </g>
    </g>
    <g id="ytick_6">
     <g id="line2d_23">
      <path d="M 48.982813 23.200395 
L 486.132813 23.200395 
" clip-path="url(#p594856efeb)" style="fill: none; stroke-dasharray: 2.96,1.28; stroke-dashoffset: 0; stroke: #b0b0b0; stroke-opacity: 0.7; stroke-width: 0.8"/>
     </g>
     <g id="line2d_24">
      <g>
       <use xlink:href="#md1083b1bac" x="48.982813" y="23.200395" style="stroke: #000000; stroke-width: 0.8"/>
      </g>
     </g>
     <g id="text_13">
      <!-- 15 -->
      <g transform="translate(29.257813 26.999614) scale(0.1 -0.1)">
       <use xlink:href="#DejaVuSans-31"/>
       <use xlink:href="#DejaVuSans-35" transform="translate(63.623047 0)"/>
      </g>
     </g>
    </g>
    <g id="text_14">
     <!-- Evaluation Score -->
     <g transform="translate(14.798438 245.871562) rotate(-90) scale(0.1 -0.1)">
      <defs>
       <path id="DejaVuSans-45" d="M 628 4666 
L 3578 4666 
L 3578 4134 
L 1259 4134 
L 1259 2753 
L 3481 2753 
L 3481 2222 
L 1259 2222 
L 1259 531 
L 3634 531 
L 3634 0 
L 628 0 
L 628 4666 
z
" transform="scale(0.015625)"/>
       <path id="DejaVuSans-76" d="M 191 3500 
L 800 3500 
L 1894 563 
L 2988 3500 
L 3597 3500 
L 2284 0 
L 1503 0 
L 191 3500 
z
" transform="scale(0.015625)"/>
       <path id="DejaVuSans-74" d="M 1172 4494 
L 1172 3500 
L 2356 3500 
L 2356 3053 
L 1172 3053 
L 1172 1153 
Q 1172 725 1289 603 
Q 1406 481 1766 481 
L 2356 481 
L 2356 0 
L 1766 0 
Q 1100 0 847 248 
Q 594 497 594 1153 
L 594 3053 
L 172 3053 
L 172 3500 
L 594 3500 
L 594 4494 
L 1172 4494 
z
" transform="scale(0.015625)"/>
       <path id="DejaVuSans-69" d="M 603 3500 
L 1178 3500 
L 1178 0 
L 603 0 
L 603 3500 
z
M 603 4863 
L 1178 4863 
L 1178 4134 
L 603 4134 
L 603 4863 
z
" transform="scale(0.015625)"/>
       <path id="DejaVuSans-6e" d="M 3513 2113 
L 3513 0 
L 2938 0 
L 2938 2094 
Q 2938 2591 2744 2837 
Q 2550 3084 2163 3084 
Q 1697 3084 1428 2787 
Q 1159 2491 1159 1978 
L 1159 0 
L 581 0 
L 581 3500 
L 1159 3500 
L 1159 2956 
Q 1366 3272 1645 3428 
Q 1925 3584 2291 3584 
Q 2894 3584 3203 3211 
Q 3513 2838 3513 2113 
z
" transform="scale(0.015625)"/>
       <path id="DejaVuSans-63" d="M 3122 3366 
L 3122 2828 
Q 2878 2963 2633 3030 
Q 2388 3097 2138 3097 
Q 1578 3097 1268 2742 
Q 959 2388 959 1747 
Q 959 1106 1268 751 
Q 1578 397 2138 397 
Q 2388 397 2633 464 
Q 2878 531 3122 666 
L 3122 134 
Q 2881 22 2623 -34 
Q 2366 -91 2075 -91 
Q 1284 -91 818 406 
Q 353 903 353 1747 
Q 353 2603 823 3093 
Q 1294 3584 2113 3584 
Q 2378 3584 2631 3529 
Q 2884 3475 3122 3366 
z
" transform="scale(0.015625)"/>
      </defs>
      <use xlink:href="#DejaVuSans-45"/>
      <use xlink:href="#DejaVuSans-76" transform="translate(63.183594 0)"/>
      <use xlink:href="#DejaVuSans-61" transform="translate(122.363281 0)"/>
      <use xlink:href="#DejaVuSans-6c" transform="translate(183.642578 0)"/>
      <use xlink:href="#DejaVuSans-75" transform="translate(211.425781 0)"/>
      <use xlink:href="#DejaVuSans-61" transform="translate(274.804688 0)"/>
      <use xlink:href="#DejaVuSans-74" transform="translate(336.083984 0)"/>
      <use xlink:href="#DejaVuSans-69" transform="translate(375.292969 0)"/>
      <use xlink:href="#DejaVuSans-6f" transform="translate(403.076172 0)"/>
      <use xlink:href="#DejaVuSans-6e" transform="translate(464.257812 0)"/>
      <use xlink:href="#DejaVuSans-20" transform="translate(527.636719 0)"/>
      <use xlink:href="#DejaVuSans-53" transform="translate(559.423828 0)"/>
      <use xlink:href="#DejaVuSans-63" transform="translate(622.900391 0)"/>
      <use xlink:href="#DejaVuSans-6f" transform="translate(677.880859 0)"/>
      <use xlink:href="#DejaVuSans-72" transform="translate(739.0625 0)"/>
      <use xlink:href="#DejaVuSans-65" transform="translate(777.925781 0)"/>
     </g>
    </g>
   </g>
   <g id="line2d_25">
    <path d="M 68.853267 198.287004 
L 72.8675 192.993679 
L 76.881734 180.046823 
L 80.895967 150.404035 
L 84.9102 125.699767 
L 88.924433 138.627309 
L 92.938666 126.059432 
L 96.9529 128.061602 
L 100.967133 129.426993 
L 104.981366 123.99555 
L 108.995599 122.090125 
L 113.009833 102.852831 
L 117.024066 92.785738 
L 121.038299 91.176207 
L 125.052532 85.304735 
L 129.066766 80.890853 
L 133.080999 61.127006 
L 137.095232 63.840863 
L 141.109465 59.699568 
L 145.123699 70.997643 
L 149.137932 104.76888 
L 153.152165 96.12274 
L 157.166398 84.68788 
L 161.180632 94.505323 
L 165.194865 64.480753 
L 169.209098 83.719266 
L 173.223331 83.113967 
L 177.237565 85.590056 
L 181.251798 65.31428 
L 185.266031 45.877436 
L 189.280264 43.827774 
L 193.294498 38.825398 
L 197.308731 50.569128 
L 201.322964 76.771327 
L 205.337197 81.373548 
L 209.35143 79.305346 
L 213.365664 63.030922 
L 217.379897 47.125706 
L 221.39413 52.249309 
L 225.408363 56.248204 
L 229.422597 70.118581 
L 233.43683 88.902738 
L 237.451063 111.473473 
L 241.465296 85.668396 
L 245.47953 92.410132 
L 249.493763 98.205028 
L 253.507996 114.777147 
L 257.522229 104.492417 
L 261.536463 125.841239 
L 265.550696 128.655392 
L 269.564929 140.500724 
L 273.579162 135.382735 
L 277.593396 142.139723 
L 281.607629 157.757258 
L 285.621862 158.130056 
L 289.636095 152.464034 
L 293.650329 151.584136 
L 297.664562 147.583004 
L 301.678795 155.973888 
L 305.693028 160.772269 
L 309.707262 169.667652 
L 313.721495 174.423862 
L 317.735728 185.180252 
L 321.749961 208.015713 
L 325.764195 205.6687 
L 329.778428 210.983504 
L 333.792661 232.547951 
L 337.806894 226.426215 
L 341.821127 238.428061 
L 345.835361 237.740921 
L 349.849594 228.096429 
L 353.863827 226.390228 
L 357.87806 211.318108 
L 361.892294 227.652523 
L 365.906527 222.330302 
L 369.92076 231.389047 
L 373.934993 242.90805 
L 377.949227 250.565139 
L 381.96346 254.686391 
L 385.977693 253.943429 
L 389.991926 269.356163 
L 394.00616 257.439929 
L 398.020393 251.280093 
L 402.034626 271.601698 
L 406.048859 251.91493 
L 410.063093 226.835894 
L 414.077326 211.242865 
L 418.091559 213.622931 
L 422.105792 227.786968 
L 426.120026 213.838561 
L 430.134259 219.171831 
L 434.148492 203.00119 
L 438.162725 200.246105 
L 442.176959 187.327014 
L 446.191192 182.612959 
L 450.205425 173.266329 
L 454.219658 173.127434 
L 458.233891 149.503738 
L 462.248125 147.82493 
L 466.262358 142.50737 
" clip-path="url(#p594856efeb)" style="fill: none; stroke: #1f77b4; stroke-width: 1.5; stroke-linecap: square"/>
   </g>
   <g id="line2d_26">
    <path d="M 68.853267 215.923798 
L 72.8675 217.906581 
L 76.881734 231.21455 
L 80.895967 242.082104 
L 84.9102 262.562586 
L 88.924433 255.525566 
L 92.938666 238.850619 
L 96.9529 240.178636 
L 100.967133 245.474495 
L 104.981366 264.950549 
L 108.995599 252.870611 
L 113.009833 223.619227 
L 117.024066 247.396176 
L 121.038299 261.463386 
L 125.052532 270.45312 
L 129.066766 277.917981 
L 133.080999 274.910623 
L 137.095232 253.557148 
L 141.109465 240.215309 
L 145.123699 233.236191 
L 149.137932 242.812402 
L 153.152165 257.622971 
L 157.166398 268.162804 
L 161.180632 247.684802 
L 165.194865 248.501549 
L 169.209098 254.41235 
L 173.223331 256.843091 
L 177.237565 245.934948 
L 181.251798 263.301472 
L 185.266031 244.585357 
L 189.280264 242.515472 
L 193.294498 245.377294 
L 197.308731 239.519276 
L 201.322964 236.630295 
L 205.337197 241.183364 
L 209.35143 244.52625 
L 213.365664 256.019661 
L 217.379897 247.33685 
L 221.39413 254.374125 
L 225.408363 267.023619 
L 229.422597 264.829557 
L 233.43683 247.247527 
L 237.451063 247.887035 
L 241.465296 255.931067 
L 245.47953 250.588285 
L 249.493763 224.969234 
L 253.507996 244.175204 
L 257.522229 239.119382 
L 261.536463 236.406473 
L 265.550696 221.041573 
L 269.564929 207.933715 
L 273.579162 210.403524 
L 277.593396 232.686508 
L 281.607629 222.017192 
L 285.621862 233.065215 
L 289.636095 245.588804 
L 293.650329 230.398293 
L 297.664562 242.447124 
L 301.678795 223.890136 
L 305.693028 219.447544 
L 309.707262 215.22621 
L 313.721495 211.161677 
L 317.735728 232.834929 
L 321.749961 256.333198 
L 325.764195 253.481838 
L 329.778428 245.968173 
L 333.792661 244.875385 
L 337.806894 255.742736 
L 341.821127 255.492432 
L 345.835361 256.577589 
L 349.849594 269.238984 
L 353.863827 255.826046 
L 357.87806 278.714333 
L 361.892294 270.926382 
L 365.906527 265.842509 
L 369.92076 252.485927 
L 373.934993 265.784306 
L 377.949227 264.44288 
L 381.96346 235.722466 
L 385.977693 226.964472 
L 389.991926 225.633973 
L 394.00616 218.501886 
L 398.020393 217.361929 
L 402.034626 188.380483 
L 406.048859 175.368833 
L 410.063093 176.501357 
L 414.077326 173.163489 
L 418.091559 178.333009 
L 422.105792 162.328975 
L 426.120026 180.929087 
L 430.134259 202.156749 
L 434.148492 182.860706 
L 438.162725 154.378995 
L 442.176959 148.184205 
L 446.191192 146.692894 
L 450.205425 137.998483 
L 454.219658 146.55778 
L 458.233891 144.292551 
L 462.248125 143.777863 
L 466.262358 135.4896 
" clip-path="url(#p594856efeb)" style="fill: none; stroke: #ff7f0e; stroke-width: 1.5; stroke-linecap: square"/>
   </g>
   <g id="line2d_27">
    <path d="M 68.853267 239.259689 
L 72.8675 234.394601 
L 76.881734 252.75831 
L 80.895967 286.823381 
L 84.9102 297.88348 
L 88.924433 293.503752 
L 92.938666 297.07377 
L 96.9529 280.312019 
L 100.967133 277.881307 
L 104.981366 288.018138 
L 108.995599 293.832999 
L 113.009833 312.83573 
L 117.024066 298.472681 
L 121.038299 316.742029 
L 125.052532 328.917285 
L 129.066766 331.037569 
L 133.080999 331.00644 
L 137.095232 350.883669 
L 141.109465 362.862198 
L 145.123699 359.356211 
L 149.137932 344.412103 
L 153.152165 339.795445 
L 157.166398 340.136859 
L 161.180632 360.804578 
L 165.194865 368.970852 
L 169.209098 362.072468 
L 173.223331 347.773583 
L 177.237565 336.008818 
L 181.251798 334.182391 
L 185.266031 318.2478 
L 189.280264 280.131513 
L 193.294498 287.987185 
L 197.308731 298.081767 
L 201.322964 277.995104 
L 205.337197 274.880352 
L 209.35143 273.394734 
L 213.365664 268.204362 
L 217.379897 276.861983 
L 221.39413 290.550372 
L 225.408363 300.830567 
L 229.422597 284.349049 
L 233.43683 303.353094 
L 237.451063 296.756834 
L 241.465296 304.133987 
L 245.47953 308.808364 
L 249.493763 298.980524 
L 253.507996 287.816144 
L 257.522229 283.279212 
L 261.536463 308.05705 
L 265.550696 287.276151 
L 269.564929 269.944724 
L 273.579162 268.735187 
L 277.593396 268.599496 
L 281.607629 244.769722 
L 285.621862 232.239733 
L 289.636095 232.627243 
L 293.650329 236.494332 
L 297.664562 239.054462 
L 301.678795 223.481904 
L 305.693028 209.724775 
L 309.707262 231.067317 
L 313.721495 224.920975 
L 317.735728 213.49028 
L 321.749961 233.417945 
L 325.764195 233.457163 
L 329.778428 256.964096 
L 333.792661 255.251151 
L 337.806894 282.808411 
L 341.821127 291.826618 
L 345.835361 299.909867 
L 349.849594 309.286612 
L 353.863827 290.085636 
L 357.87806 283.001842 
L 361.892294 288.287384 
L 365.906527 300.630243 
L 369.92076 303.788803 
L 373.934993 317.402025 
L 377.949227 304.530013 
L 381.96346 278.116567 
L 385.977693 264.18472 
L 389.991926 259.797083 
L 394.00616 261.988039 
L 398.020393 267.346831 
L 402.034626 244.26001 
L 406.048859 251.878551 
L 410.063093 231.228163 
L 414.077326 246.196292 
L 418.091559 250.114878 
L 422.105792 272.788611 
L 426.120026 270.682243 
L 430.134259 287.398975 
L 434.148492 265.373514 
L 438.162725 259.91993 
L 442.176959 252.811185 
L 446.191192 249.071882 
L 450.205425 263.524135 
L 454.219658 261.882285 
L 458.233891 237.581174 
L 462.248125 237.468009 
L 466.262358 250.921214 
" clip-path="url(#p594856efeb)" style="fill: none; stroke: #2ca02c; stroke-width: 1.5; stroke-linecap: square"/>
   </g>
   <g id="patch_3">
    <path d="M 48.982813 385.478125 
L 48.982813 22.318125 
" style="fill: none; stroke: #000000; stroke-width: 0.8; stroke-linejoin: miter; stroke-linecap: square"/>
   </g>
   <g id="patch_4">
    <path d="M 486.132813 385.478125 
L 486.132813 22.318125 
" style="fill: none; stroke: #000000; stroke-width: 0.8; stroke-linejoin: miter; stroke-linecap: square"/>
   </g>
   <g id="patch_5">
    <path d="M 48.982813 385.478125 
L 486.132813 385.478125 
" style="fill: none; stroke: #000000; stroke-width: 0.8; stroke-linejoin: miter; stroke-linecap: square"/>
   </g>
   <g id="patch_6">
    <path d="M 48.982813 22.318125 
L 486.132813 22.318125 
" style="fill: none; stroke: #000000; stroke-width: 0.8; stroke-linejoin: miter; stroke-linecap: square"/>
   </g>
   <g id="text_15">
    <!-- Benchmark hello -->
    <g transform="translate(216.976875 16.318125) scale(0.12 -0.12)">
     <defs>
      <path id="DejaVuSans-42" d="M 1259 2228 
L 1259 519 
L 2272 519 
Q 2781 519 3026 730 
Q 3272 941 3272 1375 
Q 3272 1813 3026 2020 
Q 2781 2228 2272 2228 
L 1259 2228 
z
M 1259 4147 
L 1259 2741 
L 2194 2741 
Q 2656 2741 2882 2914 
Q 3109 3088 3109 3444 
Q 3109 3797 2882 3972 
Q 2656 4147 2194 4147 
L 1259 4147 
z
M 628 4666 
L 2241 4666 
Q 2963 4666 3353 4366 
Q 3744 4066 3744 3513 
Q 3744 3084 3544 2831 
Q 3344 2578 2956 2516 
Q 3422 2416 3680 2098 
Q 3938 1781 3938 1306 
Q 3938 681 3513 340 
Q 3088 0 2303 0 
L 628 0 
L 628 4666 
z
" transform="scale(0.015625)"/>
      <path id="DejaVuSans-68" d="M 3513 2113 
L 3513 0 
L 2938 0 
L 2938 2094 
Q 2938 2591 2744 2837 
Q 2550 3084 2163 3084 
Q 1697 3084 1428 2787 
Q 1159 2491 1159 1978 
L 1159 0 
L 581 0 
L 581 4863 
L 1159 4863 
L 1159 2956 
Q 1366 3272 1645 3428 
Q 1925 3584 2291 3584 
Q 2894 3584 3203 3211 
Q 3513 2838 3513 2113 
z
" transform="scale(0.015625)"/>
      <path id="DejaVuSans-6b" d="M 581 4863 
L 1159 4863 
L 1159 1991 
L 2875 3500 
L 3609 3500 
L 1753 1863 
L 3688 0 
L 2938 0 
L 1159 1709 
L 1159 0 
L 581 0 
L 581 4863 
z
" transform="scale(0.015625)"/>
     </defs>
     <use xlink:href="#DejaVuSans-42"/>
     <use xlink:href="#DejaVuSans-65" transform="translate(68.603516 0)"/>
     <use xlink:href="#DejaVuSans-6e" transform="translate(130.126953 0)"/>
     <use xlink:href="#DejaVuSans-63" transform="translate(193.505859 0)"/>
     <use xlink:href="#DejaVuSans-68" transform="translate(248.486328 0)"/>
     <use xlink:href="#DejaVuSans-6d" transform="translate(311.865234 0)"/>
     <use xlink:href="#DejaVuSans-61" transform="translate(409.277344 0)"/>
     <use xlink:href="#DejaVuSans-72" transform="translate(470.556641 0)"/>
     <use xlink:href="#DejaVuSans-6b" transform="translate(511.669922 0)"/>
     <use xlink:href="#DejaVuSans-20" transform="translate(569.580078 0)"/>
     <use xlink:href="#DejaVuSans-68" transform="translate(601.367188 0)"/>
     <use xlink:href="#DejaVuSans-65" transform="translate(664.746094 0)"/>
     <use xlink:href="#DejaVuSans-6c" transform="translate(726.269531 0)"/>
     <use xlink:href="#DejaVuSans-6c" transform="translate(754.052734 0)"/>
     <use xlink:href="#DejaVuSans-6f" transform="translate(781.835938 0)"/>
    </g>
   </g>
   <g id="legend_1">
    <g id="patch_7">
     <path d="M 514.990313 74.3525 
L 697.25125 74.3525 
Q 699.25125 74.3525 699.25125 72.3525 
L 699.25125 29.318125 
Q 699.25125 27.318125 697.25125 27.318125 
L 514.990313 27.318125 
Q 512.990313 27.318125 512.990313 29.318125 
L 512.990313 72.3525 
Q 512.990313 74.3525 514.990313 74.3525 
z
" style="fill: #ffffff; opacity: 0.8; stroke: #cccccc; stroke-linejoin: miter"/>
    </g>
    <g id="line2d_28">
     <path d="M 516.990313 35.416562 
L 526.990313 35.416562 
L 536.990313 35.416562 
" style="fill: none; stroke: #1f77b4; stroke-width: 1.5; stroke-linecap: square"/>
    </g>
    <g id="text_16">
     <!-- Model A - BeamScore - F1Eval -->
     <g transform="translate(544.990313 38.916562) scale(0.1 -0.1)">
      <defs>
       <path id="DejaVuSans-4d" d="M 628 4666 
L 1569 4666 
L 2759 1491 
L 3956 4666 
L 4897 4666 
L 4897 0 
L 4281 0 
L 4281 4097 
L 3078 897 
L 2444 897 
L 1241 4097 
L 1241 0 
L 628 0 
L 628 4666 
z
" transform="scale(0.015625)"/>
       <path id="DejaVuSans-64" d="M 2906 2969 
L 2906 4863 
L 3481 4863 
L 3481 0 
L 2906 0 
L 2906 525 
Q 2725 213 2448 61 
Q 2172 -91 1784 -91 
Q 1150 -91 751 415 
Q 353 922 353 1747 
Q 353 2572 751 3078 
Q 1150 3584 1784 3584 
Q 2172 3584 2448 3432 
Q 2725 3281 2906 2969 
z
M 947 1747 
Q 947 1113 1208 752 
Q 1469 391 1925 391 
Q 2381 391 2643 752 
Q 2906 1113 2906 1747 
Q 2906 2381 2643 2742 
Q 2381 3103 1925 3103 
Q 1469 3103 1208 2742 
Q 947 2381 947 1747 
z
" transform="scale(0.015625)"/>
       <path id="DejaVuSans-41" d="M 2188 4044 
L 1331 1722 
L 3047 1722 
L 2188 4044 
z
M 1831 4666 
L 2547 4666 
L 4325 0 
L 3669 0 
L 3244 1197 
L 1141 1197 
L 716 0 
L 50 0 
L 1831 4666 
z
" transform="scale(0.015625)"/>
       <path id="DejaVuSans-2d" d="M 313 2009 
L 1997 2009 
L 1997 1497 
L 313 1497 
L 313 2009 
z
" transform="scale(0.015625)"/>
       <path id="DejaVuSans-46" d="M 628 4666 
L 3309 4666 
L 3309 4134 
L 1259 4134 
L 1259 2759 
L 3109 2759 
L 3109 2228 
L 1259 2228 
L 1259 0 
L 628 0 
L 628 4666 
z
" transform="scale(0.015625)"/>
      </defs>
      <use xlink:href="#DejaVuSans-4d"/>
      <use xlink:href="#DejaVuSans-6f" transform="translate(86.279297 0)"/>
      <use xlink:href="#DejaVuSans-64" transform="translate(147.460938 0)"/>
      <use xlink:href="#DejaVuSans-65" transform="translate(210.9375 0)"/>
      <use xlink:href="#DejaVuSans-6c" transform="translate(272.460938 0)"/>
      <use xlink:href="#DejaVuSans-20" transform="translate(300.244141 0)"/>
      <use xlink:href="#DejaVuSans-41" transform="translate(332.03125 0)"/>
      <use xlink:href="#DejaVuSans-20" transform="translate(400.439453 0)"/>
      <use xlink:href="#DejaVuSans-2d" transform="translate(432.226562 0)"/>
      <use xlink:href="#DejaVuSans-20" transform="translate(468.310547 0)"/>
      <use xlink:href="#DejaVuSans-42" transform="translate(500.097656 0)"/>
      <use xlink:href="#DejaVuSans-65" transform="translate(568.701172 0)"/>
      <use xlink:href="#DejaVuSans-61" transform="translate(630.224609 0)"/>
      <use xlink:href="#DejaVuSans-6d" transform="translate(691.503906 0)"/>
      <use xlink:href="#DejaVuSans-53" transform="translate(788.916016 0)"/>
      <use xlink:href="#DejaVuSans-63" transform="translate(852.392578 0)"/>
      <use xlink:href="#DejaVuSans-6f" transform="translate(907.373047 0)"/>
      <use xlink:href="#DejaVuSans-72" transform="translate(968.554688 0)"/>
      <use xlink:href="#DejaVuSans-65" transform="translate(1007.417969 0)"/>
      <use xlink:href="#DejaVuSans-20" transform="translate(1068.941406 0)"/>
      <use xlink:href="#DejaVuSans-2d" transform="translate(1100.728516 0)"/>
      <use xlink:href="#DejaVuSans-20" transform="translate(1136.8125 0)"/>
      <use xlink:href="#DejaVuSans-46" transform="translate(1168.599609 0)"/>
      <use xlink:href="#DejaVuSans-31" transform="translate(1226.119141 0)"/>
      <use xlink:href="#DejaVuSans-45" transform="translate(1289.742188 0)"/>
      <use xlink:href="#DejaVuSans-76" transform="translate(1352.925781 0)"/>
      <use xlink:href="#DejaVuSans-61" transform="translate(1412.105469 0)"/>
      <use xlink:href="#DejaVuSans-6c" transform="translate(1473.384766 0)"/>
     </g>
    </g>
    <g id="line2d_29">
     <path d="M 516.990313 50.094688 
L 526.990313 50.094688 
L 536.990313 50.094688 
" style="fill: none; stroke: #ff7f0e; stroke-width: 1.5; stroke-linecap: square"/>
    </g>
    <g id="text_17">
     <!-- Model B - BeamScore - F1Eval -->
     <g transform="translate(544.990313 53.594688) scale(0.1 -0.1)">
      <use xlink:href="#DejaVuSans-4d"/>
      <use xlink:href="#DejaVuSans-6f" transform="translate(86.279297 0)"/>
      <use xlink:href="#DejaVuSans-64" transform="translate(147.460938 0)"/>
      <use xlink:href="#DejaVuSans-65" transform="translate(210.9375 0)"/>
      <use xlink:href="#DejaVuSans-6c" transform="translate(272.460938 0)"/>
      <use xlink:href="#DejaVuSans-20" transform="translate(300.244141 0)"/>
      <use xlink:href="#DejaVuSans-42" transform="translate(332.03125 0)"/>
      <use xlink:href="#DejaVuSans-20" transform="translate(400.634766 0)"/>
      <use xlink:href="#DejaVuSans-2d" transform="translate(432.421875 0)"/>
      <use xlink:href="#DejaVuSans-20" transform="translate(468.505859 0)"/>
      <use xlink:href="#DejaVuSans-42" transform="translate(500.292969 0)"/>
      <use xlink:href="#DejaVuSans-65" transform="translate(568.896484 0)"/>
      <use xlink:href="#DejaVuSans-61" transform="translate(630.419922 0)"/>
      <use xlink:href="#DejaVuSans-6d" transform="translate(691.699219 0)"/>
      <use xlink:href="#DejaVuSans-53" transform="translate(789.111328 0)"/>
      <use xlink:href="#DejaVuSans-63" transform="translate(852.587891 0)"/>
      <use xlink:href="#DejaVuSans-6f" transform="translate(907.568359 0)"/>
      <use xlink:href="#DejaVuSans-72" transform="translate(968.75 0)"/>
      <use xlink:href="#DejaVuSans-65" transform="translate(1007.613281 0)"/>
      <use xlink:href="#DejaVuSans-20" transform="translate(1069.136719 0)"/>
      <use xlink:href="#DejaVuSans-2d" transform="translate(1100.923828 0)"/>
      <use xlink:href="#DejaVuSans-20" transform="translate(1137.007812 0)"/>
      <use xlink:href="#DejaVuSans-46" transform="translate(1168.794922 0)"/>
      <use xlink:href="#DejaVuSans-31" transform="translate(1226.314453 0)"/>
      <use xlink:href="#DejaVuSans-45" transform="translate(1289.9375 0)"/>
      <use xlink:href="#DejaVuSans-76" transform="translate(1353.121094 0)"/>
      <use xlink:href="#DejaVuSans-61" transform="translate(1412.300781 0)"/>
      <use xlink:href="#DejaVuSans-6c" transform="translate(1473.580078 0)"/>
     </g>
    </g>
    <g id="line2d_30">
     <path d="M 516.990313 64.772812 
L 526.990313 64.772812 
L 536.990313 64.772812 
" style="fill: none; stroke: #2ca02c; stroke-width: 1.5; stroke-linecap: square"/>
    </g>
    <g id="text_18">
     <!-- Model C - BeamScore - F1Eval -->
     <g transform="translate(544.990313 68.272812) scale(0.1 -0.1)">
      <defs>
       <path id="DejaVuSans-43" d="M 4122 4306 
L 4122 3641 
Q 3803 3938 3442 4084 
Q 3081 4231 2675 4231 
Q 1875 4231 1450 3742 
Q 1025 3253 1025 2328 
Q 1025 1406 1450 917 
Q 1875 428 2675 428 
Q 3081 428 3442 575 
Q 3803 722 4122 1019 
L 4122 359 
Q 3791 134 3420 21 
Q 3050 -91 2638 -91 
Q 1578 -91 968 557 
Q 359 1206 359 2328 
Q 359 3453 968 4101 
Q 1578 4750 2638 4750 
Q 3056 4750 3426 4639 
Q 3797 4528 4122 4306 
z
" transform="scale(0.015625)"/>
      </defs>
      <use xlink:href="#DejaVuSans-4d"/>
      <use xlink:href="#DejaVuSans-6f" transform="translate(86.279297 0)"/>
      <use xlink:href="#DejaVuSans-64" transform="translate(147.460938 0)"/>
      <use xlink:href="#DejaVuSans-65" transform="translate(210.9375 0)"/>
      <use xlink:href="#DejaVuSans-6c" transform="translate(272.460938 0)"/>
      <use xlink:href="#DejaVuSans-20" transform="translate(300.244141 0)"/>
      <use xlink:href="#DejaVuSans-43" transform="translate(332.03125 0)"/>
      <use xlink:href="#DejaVuSans-20" transform="translate(401.855469 0)"/>
      <use xlink:href="#DejaVuSans-2d" transform="translate(433.642578 0)"/>
      <use xlink:href="#DejaVuSans-20" transform="translate(469.726562 0)"/>
      <use xlink:href="#DejaVuSans-42" transform="translate(501.513672 0)"/>
      <use xlink:href="#DejaVuSans-65" transform="translate(570.117188 0)"/>
      <use xlink:href="#DejaVuSans-61" transform="translate(631.640625 0)"/>
      <use xlink:href="#DejaVuSans-6d" transform="translate(692.919922 0)"/>
      <use xlink:href="#DejaVuSans-53" transform="translate(790.332031 0)"/>
      <use xlink:href="#DejaVuSans-63" transform="translate(853.808594 0)"/>
      <use xlink:href="#DejaVuSans-6f" transform="translate(908.789062 0)"/>
      <use xlink:href="#DejaVuSans-72" transform="translate(969.970703 0)"/>
      <use xlink:href="#DejaVuSans-65" transform="translate(1008.833984 0)"/>
      <use xlink:href="#DejaVuSans-20" transform="translate(1070.357422 0)"/>
      <use xlink:href="#DejaVuSans-2d" transform="translate(1102.144531 0)"/>
      <use xlink:href="#DejaVuSans-20" transform="translate(1138.228516 0)"/>
      <use xlink:href="#DejaVuSans-46" transform="translate(1170.015625 0)"/>
      <use xlink:href="#DejaVuSans-31" transform="translate(1227.535156 0)"/>
      <use xlink:href="#DejaVuSans-45" transform="translate(1291.158203 0)"/>
      <use xlink:href="#DejaVuSans-76" transform="translate(1354.341797 0)"/>
      <use xlink:href="#DejaVuSans-61" transform="translate(1413.521484 0)"/>
      <use xlink:href="#DejaVuSans-6c" transform="translate(1474.800781 0)"/>
     </g>
    </g>
   </g>
  </g>
 </g>
 <defs>
  <clipPath id="p594856efeb">
   <rect x="48.982813" y="22.318125" width="437.15" height="363.16"/>
  </clipPath>
 </defs>
</svg>
